<svg width="215" height="56" viewBox="0 0 215 56" fill="none" xmlns="http://www.w3.org/2000/svg">
<rect width="215" height="56" fill="#1E1E1E"/>
<g clip-path="url(#clip0_1_3)">
<rect width="1920" height="1080" transform="translate(-20 -14)" fill="#DBDBDB"/>
<rect x="-20" y="-14" width="1920" height="83" fill="white"/>
<g clip-path="url(#clip1_1_3)">
<path d="M50.901 24.8325L42.4435 21.7372L33.9822 24.8325L25.5245 21.7372L17.0631 24.8325L8.60541 21.7372L0.147705 24.8325V35.6514L8.60541 38.75L17.0631 35.6514L25.5245 38.75L33.9822 35.6514L42.4435 38.75L50.901 35.6514V24.8325Z" fill="black"/>
<path d="M50.901 7.81967L42.4435 4.72437L33.9822 7.81967L25.5245 4.72437L17.0631 7.81967L8.60541 4.72437L0.147705 7.81967V18.6421L8.60541 21.7374L17.0631 18.6421L25.5245 21.7374L33.9822 18.6421L42.4435 21.7374L50.901 18.6421V7.81967Z" fill="#28BE46"/>
<path d="M17.0629 7.81967L8.60147 10.9187L0.143799 7.81967L8.60147 4.72437L17.0629 7.81967Z" fill="black"/>
<path d="M33.9777 7.81967L25.5202 10.9187L17.0625 7.81967L25.5202 4.72437L33.9777 7.81967Z" fill="black"/>
<path d="M50.8976 7.81967L42.44 10.9187L33.9788 7.81967L42.44 4.72437L50.8976 7.81967Z" fill="black"/>
<path d="M0.143799 35.652L8.60147 32.5566L17.0629 35.652L8.60147 38.751L0.143799 35.652Z" fill="#28BE46"/>
<path d="M33.9822 35.652L42.4397 32.5566L50.901 35.652L42.4397 38.751L33.9822 35.652Z" fill="#28BE46"/>
<path d="M33.9777 24.8328L25.5202 27.928L17.0625 24.8328V35.6516L25.5202 38.7506L33.9777 35.6516V24.8328Z" fill="#28BE46"/>
<path d="M50.901 41.8459L42.4435 38.7506L33.9822 41.8459L25.5245 38.7506L17.0631 41.8459L8.60541 38.7506L0.147705 41.8459V52.6644L8.60541 55.7597L17.0631 52.6644L25.5245 55.7597L33.9822 52.6644L42.4435 55.7597L50.901 52.6644V41.8459Z" fill="black"/>
<path d="M0.143799 52.6647L8.60147 49.5695L17.0629 52.6647L8.60147 55.76L0.143799 52.6647Z" fill="#28BE46"/>
<path d="M33.9822 52.6647L42.4397 49.5695L50.901 52.6647L42.4397 55.76L33.9822 52.6647Z" fill="#28BE46"/>
<path d="M33.9777 41.8456L25.5202 44.9409L17.0625 41.8456V52.6641L25.5202 55.7597L33.9777 52.6641V41.8456Z" fill="#28BE46"/>
<path d="M70.4336 5.81006H85.7647V9.35299H79.9878V23.2565H76.1789V9.35299H70.4336V5.81006Z" fill="black"/>
<path d="M97.7304 5.55359C102.981 5.55359 106.879 9.38375 106.879 14.529C106.879 19.6742 102.981 23.5043 97.7304 23.5043C92.4803 23.5043 88.5505 19.6742 88.5505 14.529C88.5505 9.38375 92.4421 5.55359 97.7304 5.55359ZM102.955 14.529C102.936 13.4911 102.613 12.4819 102.026 11.6283C101.438 10.7747 100.613 10.1146 99.6539 9.73099C98.6947 9.3474 97.644 9.25743 96.6341 9.47237C95.6243 9.68731 94.6998 10.1975 93.9775 10.939C93.2549 11.6805 92.7665 12.6201 92.5734 13.6399C92.3804 14.6596 92.4914 15.7139 92.8924 16.6704C93.2934 17.627 93.9667 18.443 94.8274 19.0161C95.6881 19.5891 96.6983 19.8936 97.7304 19.8912C98.4264 19.8958 99.1163 19.7593 99.7586 19.4899C100.401 19.2205 100.983 18.8238 101.469 18.3233C101.955 17.8227 102.337 17.2288 102.59 16.5769C102.843 15.925 102.963 15.2285 102.942 14.529H102.955Z" fill="black"/>
<path d="M112.243 5.81006H116.268L121.397 11.9192L126.521 5.81006H130.495V23.2565H126.8V10.6105L121.397 17.224L115.97 10.6616V23.2565H112.243V5.81006Z" fill="black"/>
<path d="M144.855 9.20503C144.144 9.18025 143.435 9.29972 142.771 9.5563C142.106 9.81285 141.5 10.2012 140.988 10.6984C140.477 11.1955 140.07 11.7911 139.792 12.4498C139.514 13.1084 139.371 13.8166 139.371 14.5322C139.371 15.2477 139.514 15.9558 139.792 16.6145C140.07 17.2732 140.477 17.8688 140.988 18.3659C141.5 18.863 142.106 19.2514 142.771 19.508C143.435 19.7646 144.144 19.8841 144.855 19.8593C145.767 19.8627 146.665 19.6368 147.468 19.2019C148.27 18.7671 148.952 18.1372 149.451 17.3697L152.181 19.738C151.372 20.9392 150.273 21.9146 148.988 22.5733C147.702 23.2319 146.271 23.5522 144.829 23.5043C139.649 23.5043 135.624 19.9104 135.624 14.529C135.624 9.14757 139.979 5.55359 144.804 5.55359C148.905 5.55359 151.229 7.74316 152.181 9.32633L149.451 11.6882C148.952 10.9219 148.269 10.2933 147.467 9.85958C146.664 9.42587 145.766 9.20089 144.855 9.20503Z" fill="black"/>
<path d="M157.082 23.2565V5.81006H160.892V23.2565H157.082ZM167.183 5.81006H171.411L165.335 13.4002L172.509 23.2565H168.008L160.91 13.5534L167.183 5.81006Z" fill="black"/>
<path d="M180.66 17.4474L188.761 5.81006H192.57V23.2565H188.761V11.5426L180.635 23.2565H176.826V5.81006H180.597L180.66 17.4474Z" fill="black"/>
<path d="M202.943 17.4466L211.043 5.80926H214.852V23.2557H211.043V11.5418L202.917 23.2557H199.108V5.80926H202.917L202.943 17.4466ZM205.444 0.210815C205.421 0.429604 205.443 0.650757 205.509 0.860703C205.574 1.07065 205.681 1.26496 205.824 1.43173C205.966 1.59849 206.141 1.7342 206.338 1.83052C206.535 1.92683 206.749 1.98174 206.967 1.99185C207.186 1.97977 207.401 1.92378 207.598 1.82719C207.795 1.7306 207.971 1.59535 208.115 1.4294C208.259 1.26345 208.369 1.07016 208.438 0.860886C208.507 0.651612 208.534 0.430589 208.517 0.210815H211.291C211.291 2.84725 209.386 4.45592 206.967 4.45592C204.549 4.45592 202.619 2.84725 202.619 0.210815H205.444Z" fill="black"/>
<path d="M88.2084 54.5365H84.3995V40.6329H76.4259V54.5365H72.6167V37.09H88.2084V54.5365Z" fill="black"/>
<path d="M102.366 36.8328C107.616 36.8328 111.52 40.6632 111.52 45.8084C111.52 50.9536 107.616 54.7836 102.366 54.7836C97.1155 54.7836 93.1921 50.9536 93.1921 45.8084C93.1921 40.6632 97.0966 36.8328 102.366 36.8328ZM107.59 45.8084C107.578 44.7688 107.26 43.7564 106.676 42.8988C106.092 42.0408 105.27 41.3756 104.311 40.9873C103.352 40.5987 102.3 40.5043 101.288 40.7158C100.276 40.9272 99.3488 41.4349 98.6232 42.1752C97.8975 42.9154 97.4061 43.8552 97.2106 44.8757C97.0149 45.8963 97.1242 46.9525 97.5242 47.9109C97.9245 48.8694 98.5975 49.687 99.4592 50.2616C100.321 50.8358 101.332 51.1409 102.366 51.1386C103.06 51.1457 103.749 51.012 104.391 50.7459C105.033 50.4795 105.615 50.0858 106.103 49.5882C106.59 49.091 106.973 48.4998 107.229 47.8505C107.485 47.2009 107.608 46.5065 107.59 45.8084Z" fill="black"/>
<path d="M114.32 54.6641V51.1724H115.298C116.822 51.1724 117.596 50.4444 117.596 48.4081V37.09H131.099V54.5365H127.29V40.6074H121.221V48.6188C121.221 52.2385 119.647 54.6516 115.698 54.6516L114.32 54.6641Z" fill="black"/>
<path d="M141.478 48.7274L149.579 37.09H153.388V54.5365H149.579V42.8227L141.535 54.5365H137.727V37.09H141.535L141.478 48.7274Z" fill="black"/>
<path d="M158.359 37.09H173.684V40.6329H167.907V54.5365H164.098V40.6329H158.346L158.359 37.09Z" fill="black"/>
<path d="M178.661 37.09H191.814V40.6074H182.489V44.0034H189.066V47.3997H182.489V51.019H191.916V54.5365H178.661V37.09Z" fill="black"/>
<path d="M204.841 43.0205L209.24 37.09H213.595L207.19 45.6889L213.869 54.5365H209.196L204.517 48.4529L199.87 54.5365H195.496L202.175 45.6889L195.75 37.09H200.372L204.841 43.0205Z" fill="black"/>
</g>
</g>
<defs>
<clipPath id="clip0_1_3">
<rect width="1920" height="1080" fill="white" transform="translate(-20 -14)"/>
</clipPath>
<clipPath id="clip1_1_3">
<rect width="215" height="56" fill="white"/>
</clipPath>
</defs>
</svg>
